<svg width="70" height="70" viewBox="0 0 70 70" fill="none" xmlns="http://www.w3.org/2000/svg">
<path d="M43.657 11.1617C41.4313 11.4188 38.2813 13.3821 36.7172 15.4821C35.8149 16.6852 35.2844 17.8336 34.825 19.5617L34.5953 20.4258L34.6063 21.3446C34.6172 21.8477 34.6445 22.318 34.6719 22.3946C34.743 22.575 34.8797 22.6024 35.8422 22.6078C36.6406 22.6133 36.6899 22.6078 37.3734 22.4055C39.2 21.875 40.5399 21.0766 41.4914 19.9446C41.7211 19.6656 42.0656 19.2938 42.2461 19.1078C42.8477 18.5172 43.6188 17.2047 44.0453 16.0672C44.4719 14.9242 44.6633 13.8633 44.718 12.3539L44.7508 11.386L44.6086 11.2438C44.45 11.0852 44.3625 11.0797 43.657 11.1617Z" fill="#717171"/>
<path d="M43.1484 22.4656C42.0656 22.5203 39.1508 23.3297 37.0563 24.15C35.7875 24.6477 35.7875 24.6477 35.5359 24.6914C35.0984 24.7625 34.0266 24.4508 32.1836 23.707C31.2047 23.3188 30.1984 23.0235 28.7109 22.6844C28.0875 22.5477 27.0539 22.5313 26.6055 22.657C26.425 22.7063 25.8563 22.8211 25.3422 22.9086C24.2375 23.1055 23.6141 23.2969 22.7828 23.707C20.2727 24.932 18.5609 26.693 17.2047 29.4492C16.6031 30.6633 16.1602 31.85 15.832 33.1133C15.3453 34.9891 15.3344 38.5875 15.8102 40.7695C15.8648 41.0375 15.9141 41.3547 15.9141 41.4805C15.9141 41.743 15.9633 41.9399 16.4227 43.75C16.8492 45.4235 16.8055 45.2867 17.6203 47.332C18.7633 50.2031 19.1242 50.8375 21.4594 54.0586C22.4164 55.3766 22.9031 55.9781 23.6086 56.6945C24.3469 57.4492 24.943 57.8867 25.7852 58.3024C26.7367 58.7672 27.1523 58.8711 28.0273 58.8656C29.1484 58.8656 30.0508 58.636 31.768 57.9141C32.8508 57.4602 32.9219 57.4383 34.8906 57.0336C35.4813 56.9078 36.0281 56.9188 36.8594 57.0555C37.1438 57.0992 37.5703 57.1649 37.8 57.1977C38.2648 57.2633 38.7352 57.4164 39.9492 57.9031C41.4148 58.4938 42.4484 58.7563 43.5312 58.8219C45.1063 58.9203 46.6266 58.2203 48.2508 56.6617C49.9078 55.0594 51.4555 52.8664 53.0195 49.9078C53.4406 49.1094 54.1133 47.4742 54.2281 46.982C54.2773 46.7852 54.3594 46.5391 54.4195 46.4406C54.4742 46.3422 54.5234 46.2055 54.5234 46.1453C54.5234 45.9485 54.1242 45.6367 53.4188 45.2813C52.0898 44.5977 50.7828 43.4274 49.9023 42.1094C49.2734 41.1633 48.6391 39.7469 48.4805 38.9102C48.2125 37.532 48.1359 36.0227 48.2891 34.9727C48.3273 34.6992 48.4641 34.125 48.5953 33.6875C49.1586 31.7899 49.5469 31.0297 50.4273 30.0891C50.6953 29.8102 50.9141 29.5531 50.9141 29.5313C50.9141 29.4383 52.2539 28.3172 52.582 28.1367C52.7625 28.0328 52.9922 27.8742 53.0906 27.7758C53.3914 27.4805 53.3477 27.3656 52.593 26.4797C51.5812 25.293 50.307 24.3195 48.8086 23.5922C47.8734 23.1383 47.2281 22.9141 46.3258 22.7281C45.4016 22.5313 44.0234 22.4164 43.1484 22.4656Z" fill="#717171"/>
</svg>
